<?xml version="1.0" encoding="utf-8"?>
<!-- Generator: Adobe Illustrator 16.0.0, SVG Export Plug-In . SVG Version: 6.00 Build 0)  -->
<!DOCTYPE svg PUBLIC "-//W3C//DTD SVG 1.1//EN" "http://www.w3.org/Graphics/SVG/1.1/DTD/svg11.dtd">
<svg version="1.1" id="Ebene_1" xmlns="http://www.w3.org/2000/svg" xmlns:xlink="http://www.w3.org/1999/xlink" x="0px" y="0px"
	 width="300px" height="300px" viewBox="0 0 300 300" enable-background="new 0 0 300 300" xml:space="preserve">
<circle fill="#1E2144" cx="139" cy="144" r="101.431"/>
<circle fill="none" cx="139" cy="144" r="101.431"/>
<g>
	<path fill="#F7B9B1" d="M197.134,136.375c-1.253-0.626-3.355-0.827-5.588-0.819c-0.573-7.938-3.881-14.571-9.163-19.83
		c5.272-6.742,5.947-13.976,5.978-14.353c0.021-0.257-0.065-0.511-0.239-0.702c-0.175-0.19-0.422-0.298-0.68-0.298
		c-6.162,0-11.646,2.323-15.16,4.273c-0.034,0.018-1.788,1.037-3.471,2.179c-8.468-3.641-18.722-5.529-29.781-5.529
		c-18.298,0-34.41,5.15-43.836,14.901c-0.604-1.306-1.478-2.624-2.745-3.585c-0.644-0.49-1.34-0.856-2.087-1.099
		c-0.135-0.188-0.282-0.369-0.443-0.542c-1.625-1.76-5.081-3.33-12.317-0.822c-0.722,0.25-1.105,1.04-0.854,1.762
		c0.25,0.722,1.036,1.103,1.761,0.854c2.563-0.888,4.741-1.265,6.421-1.133c-3.781,1.122-4.966,3.597-4.768,5.672
		c0.275,2.88,3.081,5.223,6.253,5.223c1.79,0,3.439-1.325,4.41-3.545c0.443-1.012,0.72-2.212,0.731-3.427
		c0.76,0.874,1.261,1.972,1.593,2.972c-4.281,5.346-6.646,11.878-6.646,19.538c0,13.095,7.498,24.818,18.498,32.719v10.606
		c0,3.179,2.398,5.609,5.577,5.609h10.645c3.179,0,5.778-2.431,5.778-5.609v-1.394c4,0.743,7.787,1.148,11.938,1.148
		c3.132,0,6.062-0.237,9.062-0.667v0.912c0,3.179,2.785,5.609,5.964,5.609h10.645c3.179,0,5.392-2.431,5.392-5.609v-8.718
		c6-3.671,11.257-8.376,14.917-13.794c2.812,1.701,7.515,2.992,12.126-2.195C204.428,148.375,200.826,138.221,197.134,136.375z
		 M88.287,117.873c-0.486,1.111-1.256,1.886-1.873,1.886c-1.937,0-3.371-1.405-3.496-2.717c-0.133-1.39,1.272-2.506,3.758-2.986
		c0.465-0.09,0.905-0.134,1.322-0.134c0.185,0,0.366,0.008,0.542,0.026C88.991,115.199,88.783,116.74,88.287,117.873z"/>
	<ellipse fill="#1E2144" cx="196.672" cy="144.939" rx="1.846" ry="3.025"/>
	<ellipse fill="#1E2144" cx="178.21" cy="132.452" rx="4.154" ry="3.923"/>
	<g>
		<path fill="#1E2144" d="M154.065,112.696c-15.322-7.442-28.581-0.115-28.714-0.041l-1.365-2.41
			c0.591-0.334,14.672-8.112,31.289-0.041L154.065,112.696z"/>
	</g>
</g>
</svg>
