<?xml version="1.0" encoding="utf-8"?>
<!-- Generator: Adobe Illustrator 16.0.0, SVG Export Plug-In . SVG Version: 6.00 Build 0)  -->
<!DOCTYPE svg PUBLIC "-//W3C//DTD SVG 1.1//EN" "http://www.w3.org/Graphics/SVG/1.1/DTD/svg11.dtd">
<svg version="1.1" id="Ebene_1" xmlns="http://www.w3.org/2000/svg" xmlns:xlink="http://www.w3.org/1999/xlink" x="0px" y="0px"
	 width="200px" height="200px" viewBox="0 0 200 200" enable-background="new 0 0 200 200" xml:space="preserve">
<g>
	<path fill="#D9AB8B" d="M120.021,139.49c-1.213-0.942-1.953-2.34-2.249-3.86c-1.217-6.246-1.072-21.274-1.04-23.955
		c0.003-0.211-0.189-0.372-0.426-0.372h-1.434H85.154h-1.433c-0.237,0-0.429,0.162-0.426,0.372
		c0.028,2.654,0.149,17.379-1.04,23.955c-0.326,1.803-1.309,3.431-2.962,4.328C85.655,147.328,114.141,141.69,120.021,139.49z"/>
	<path fill="#C0D8E3" d="M165.617,155.861c-2.958-2.093-6.37-3.63-9.979-4.631l-3.803-1.011c0.025-0.008,0.052-0.014,0.076-0.021
		l-26.927-8.753l-3.027-0.983c-0.752-0.203-1.388-0.545-1.937-0.972c-5.88,2.2-12.306,3.307-19.285,3.307
		c2.767,0,4.15,0,6.917,1.383c-10.09,1.122-21.997,3.148-28.358-4.222c-0.376,0.204-0.775,0.383-1.224,0.504l-3.027,0.983
		l-26.927,8.753c0.025,0.008,0.052,0.015,0.077,0.022l-3.896,1.036c-3.107,0.861-6.091,2.091-8.712,3.806
		c-13.699,8.96-14.093,23.624-14.66,26.353c-0.049,0.233,0.152,0.444,0.419,0.444h78.67h78.67c0.267,0,0.468-0.211,0.42-0.444
		C178.552,178.767,178.351,164.869,165.617,155.861z"/>
	<g>
		<path fill="#C1977A" d="M117.128,129.983c-0.142-6.999-0.401-13.573-0.384-15.351c0.002-0.263-0.189-0.463-0.426-0.463H83.734
			c-0.237,0-0.429,0.2-0.427,0.463c0.016,1.774-0.26,8.38-0.409,15.399c2.328,2.426,10.96,5.877,16.756,5.916
			C105.691,135.988,114.616,131.901,117.128,129.983z"/>
	</g>
	<g>
		<path fill="#D9AB8B" d="M69.27,79.47c2.295,6.182,0.987,15.846-2.921,17.712c-3.909,1.867-8.938-4.771-11.233-10.953
			c-2.296-6.183-0.988-12.707,2.921-14.573C61.944,69.789,66.974,73.287,69.27,79.47z"/>
		<path fill="#D9AB8B" d="M130.783,79.47c-2.296,6.182-0.988,15.846,2.921,17.712c3.908,1.867,8.938-4.771,11.233-10.953
			c2.295-6.183,0.987-12.707-2.921-14.573C138.107,69.789,133.078,73.287,130.783,79.47z"/>
	</g>
	<path fill="#D9AB8B" d="M99.666,24.649c-38.763-1.284-39.335,35.836-38.753,48.07c0.424,8.909,2.54,21.86,4.427,28.29
		c1.084,3.693,3.048,9.869,5.861,12.555c7.562,7.214,16.954,13.608,22.763,15.826c1.047,0.4,3.34,0.58,5.702,0.564
		c2.361,0.016,4.654-0.164,5.701-0.564c5.809-2.218,15.201-8.612,22.763-15.826c2.813-2.686,4.777-8.861,5.861-12.555
		c1.887-6.43,4.003-19.381,4.427-28.29C139,60.485,138.428,23.365,99.666,24.649z"/>
	<g>
		<ellipse fill="#332215" cx="79.591" cy="75.849" rx="4.842" ry="6"/>
		<ellipse fill="#332215" cx="118.913" cy="75.849" rx="4.842" ry="6"/>
	</g>
	<path fill="#868F7A" d="M93.853,156.765l-6.147-13.416h24.617l-6.147,13.416C103.437,161.508,96.591,161.508,93.853,156.765z"/>
	<path fill="#868F7A" d="M105.826,161.684l6.148,20.338H87.357l6.147-20.338C96.243,156.94,103.088,156.94,105.826,161.684z"/>
	<g>
		<path fill="#EAEAEA" d="M81.807,134.108l-6.16,4.225l13.206,19.793l12.248-15.089C101.101,143.037,82.712,138.333,81.807,134.108z
			"/>
		<path fill="#EAEAEA" d="M118.246,134.108l6.16,4.225L111.2,158.126l-12.249-15.089
			C98.951,143.037,117.341,138.333,118.246,134.108z"/>
	</g>
	<linearGradient id="SVGID_1_" gradientUnits="userSpaceOnUse" x1="95.1772" y1="57.4097" x2="111.2585" y2="44.7139">
		<stop  offset="0" style="stop-color:#6A260C"/>
		<stop  offset="1" style="stop-color:#915123"/>
	</linearGradient>
	<path fill="url(#SVGID_1_)" d="M115.685,48.222c-8.109-4.612-18.261-5.464-27.024-2.268c-8.765,3.196-15.984,10.383-19.221,19.133
		c7.892-2.194,15.782-4.389,23.674-6.583c9.605-2.671,15.734-10.839,25.088-12.475c6.677-1.167,15.984,0.498,6.269,6.715
		c-2.843,1.818-6.105,2.849-9.325,3.858c-5.938,1.863-11.876,3.726-17.814,5.589c1.37-0.43,5.116-7.457,6.668-8.87
		c2.311-2.104,4.95-3.854,7.78-5.188"/>
	<linearGradient id="SVGID_2_" gradientUnits="userSpaceOnUse" x1="86.6562" y1="46.6152" x2="102.7375" y2="33.9195">
		<stop  offset="0" style="stop-color:#6A260C"/>
		<stop  offset="1" style="stop-color:#915123"/>
	</linearGradient>
	<path fill="url(#SVGID_2_)" d="M130.271,39.046c1.89-5.291-0.89-11.244-5.833-14.916c-4.942-3.673-11.688-5.302-18.301-5.558
		c-19.441-0.752-38.602,10.75-43.915,26.362c0.74,0.379,1.479,0.758,2.22,1.138c19.588,10.041,44.362,1.65,65.108-5.704
		C129.125,39.751,130.697,39.662,130.271,39.046z"/>
	<g>
		<g>
			<path fill="#FFFFFF" d="M85.734,104.438c2.402,5.304,7.729,9,13.932,9c6.201,0,11.528-3.696,13.932-9H85.734z"/>
		</g>
	</g>
	<linearGradient id="SVGID_3_" gradientUnits="userSpaceOnUse" x1="97.8765" y1="60.8271" x2="113.9578" y2="48.1314">
		<stop  offset="0" style="stop-color:#6A260C"/>
		<stop  offset="1" style="stop-color:#915123"/>
	</linearGradient>
	<path fill="url(#SVGID_3_)" d="M136.085,41.948c-0.101-0.659-0.314-1.307-0.679-1.894c-6.077-9.782-18.973-16.93-35.74-16.282
		c-16.769-0.648-29.664,6.5-35.74,16.282c-0.365,0.587-0.579,1.235-0.68,1.894c-4.361,8.354-2.668,18.046-2.79,25.053
		c0.289,4.62,1.05,9.15,2.479,13.237c1.157-6.288,0.752-12.753,2.192-19.093c1.057-4.648,23.107-8.331,34.538-8.331
		c10.849,0,20.798-1.793,28.792-4.765c-4.517,4.818,2.751,12.223,6.546,18.008c0.532,4.742,0.532,9.51,1.392,14.181
		c1.43-4.087,2.19-8.617,2.479-13.237C138.753,59.995,140.446,50.302,136.085,41.948z"/>
</g>
</svg>
