<?xml version="1.0" encoding="utf-8"?>
<!-- Generator: Adobe Illustrator 16.0.0, SVG Export Plug-In . SVG Version: 6.00 Build 0)  -->
<!DOCTYPE svg PUBLIC "-//W3C//DTD SVG 1.1//EN" "http://www.w3.org/Graphics/SVG/1.1/DTD/svg11.dtd">
<svg version="1.1" id="Ebene_1" xmlns="http://www.w3.org/2000/svg" xmlns:xlink="http://www.w3.org/1999/xlink" x="0px" y="0px"
	 width="200px" height="200px" viewBox="0 0 200 200" enable-background="new 0 0 200 200" xml:space="preserve">
<g>
	<path fill="#F9DAC5" d="M153.467,157.393c-2.539-2.021-5.469-3.506-8.568-4.473l-28.917-9.016l0,0
		c-2.071-0.629-3.224-2.533-3.593-4.667c-1.045-6.033-0.921-21.931-0.894-24.521c0.003-0.203-0.162-0.359-0.365-0.359H85.615
		c-0.203,0-0.367,0.156-0.365,0.359c0.024,2.563,0.129,18.17-0.893,24.521c-0.344,2.138-1.521,4.038-3.593,4.667l0,0l-28.997,9.041
		c-2.667,0.832-5.229,2.02-7.48,3.676c-11.761,8.654-12.099,22.816-12.587,25.452c-0.042,0.226,0.131,0.429,0.36,0.429h66.312
		h66.313c0.229,0,0.401-0.203,0.359-0.429C164.572,179.515,164.398,166.093,153.467,157.393z"/>
	<linearGradient id="SVGID_1_" gradientUnits="userSpaceOnUse" x1="99.7183" y1="140.668" x2="99.7183" y2="90.7415">
		<stop  offset="0.1608" style="stop-color:#D86D25"/>
		<stop  offset="0.6432" style="stop-color:#E67F3A"/>
	</linearGradient>
	<path fill="url(#SVGID_1_)" d="M134.176,158.711c8.895,1.619,18.424-0.888,25.465-6.699c7.043-5.812,7.625-15.223,8-24.492
		c-5.945,4.826-15.486,1.317-19.416-5.338c-3.93-6.656-4.659-14.865-3.839-22.604c1.146-10.814,2.294-21.698,1.612-32.556
		c-0.683-10.859-3.303-21.804-9.114-30.783c-8.577-13.252-24.067-19.791-39.242-19.791c-15.175,0-30.665,6.539-39.242,19.791
		c-5.811,8.979-8.432,19.924-9.114,30.783c-0.682,10.858,0.465,21.742,1.612,32.556c0.82,7.739,0.091,15.948-3.839,22.604
		c-3.93,6.655-9.318,10.164-15.264,5.338c0.376,9.27,0.958,18.68,8,24.492c7.042,5.812,12.418,8.318,21.312,6.699H134.176z"/>
	<path fill="#F9DAC5" d="M153.467,157.393c-2.539-2.021-5.469-3.506-8.568-4.473l-28.917-9.016l0,0
		c-2.071-0.629-3.224-2.533-3.593-4.667c-1.045-6.033-0.921-21.931-0.894-24.521c0.003-0.203-0.162-0.359-0.365-0.359H85.615
		c-0.203,0-0.367,0.156-0.365,0.359c0.024,2.563,0.129,18.17-0.893,24.521c-0.344,2.138-1.521,4.038-3.593,4.667l0,0l-28.997,9.041
		c-2.667,0.832-5.229,2.02-7.48,3.676c-11.761,8.654-12.099,22.816-12.587,25.452c-0.042,0.226,0.131,0.429,0.36,0.429h66.312
		h66.313c0.229,0,0.401-0.203,0.359-0.429C164.572,179.515,164.398,166.093,153.467,157.393z"/>
	<g>
		<path fill="#22ADBC" d="M55.046,151.923l-3.279,1.022c-2.667,0.832-5.229,2.02-7.48,3.676
			c-11.761,8.654-12.099,22.816-12.587,25.452c-0.042,0.226,0.131,0.429,0.36,0.429h66.312h66.313c0.229,0,0.401-0.203,0.359-0.429
			c-0.473-2.559-0.646-15.98-11.578-24.681c-2.539-2.021-5.469-3.506-8.568-4.473l-3.199-0.997
			c-13.256,4.663-27.905,7.271-43.327,7.271C82.952,159.193,68.303,156.585,55.046,151.923z"/>
		<path fill="#F9DAC5" d="M112.389,139.237c-1.045-6.033-0.921-21.931-0.893-24.521c0.002-0.203-0.163-0.359-0.366-0.359H85.616
			c-0.204,0-0.368,0.156-0.366,0.359c0.024,2.563,0.129,18.17-0.893,24.521c-0.344,2.138-1.521,4.038-3.593,4.667l-25.718,8.019
			c13.257,4.662,27.906,7.271,43.327,7.271c15.421,0,30.071-2.607,43.327-7.271l-25.718-8.019
			C113.91,143.275,112.758,141.371,112.389,139.237z"/>
	</g>
	<g>
		<path fill="#F2BD9E" d="M111.562,128.07c-0.122-5.431-0.082-10.59-0.066-11.97c0.002-0.203-0.163-0.358-0.366-0.358H85.616
			c-0.204,0-0.368,0.155-0.366,0.359c0.013,1.376,0.047,6.518-0.08,11.964C93.703,130.988,103.029,130.99,111.562,128.07z"/>
	</g>
	<g>
		<path fill="#F9DAC5" d="M67.616,81.72c2.295,5.451,0.988,13.973-2.921,15.619c-3.908,1.646-8.938-4.208-11.233-9.66
			c-2.295-5.451-0.988-11.205,2.92-12.851C60.291,73.183,65.32,76.268,67.616,81.72z"/>
		<path fill="#F9DAC5" d="M129.13,81.72c-2.296,5.451-0.987,13.973,2.921,15.619c3.908,1.646,8.938-4.208,11.232-9.66
			c2.296-5.451,0.988-11.205-2.92-12.851C136.455,73.183,131.426,76.268,129.13,81.72z"/>
	</g>
	<path fill="#F9DAC5" d="M98.373,27.885C59.243,26.351,58.676,63.679,59.26,75.952c0.424,8.909,3.924,21.861,5.811,28.291
		c1.083,3.692,3.048,7.101,5.862,9.785c10.214,9.746,27.44,13.059,27.44,13.059s17.226-3.312,27.44-13.059
		c2.814-2.685,4.778-6.093,5.862-9.785c1.887-6.43,5.388-19.381,5.812-28.291C138.069,63.679,137.502,26.351,98.373,27.885z"/>
	<g>
		<ellipse fill="#332215" cx="77.938" cy="79.082" rx="5.092" ry="6"/>
		<ellipse fill="#332215" cx="117.26" cy="79.082" rx="5.092" ry="6"/>
	</g>
	<linearGradient id="SVGID_2_" gradientUnits="userSpaceOnUse" x1="114.3271" y1="35.4414" x2="140.5649" y2="76.914">
		<stop  offset="0.3719" style="stop-color:#E67F3A"/>
		<stop  offset="1" style="stop-color:#F8B985"/>
	</linearGradient>
	<path fill="url(#SVGID_2_)" d="M119.465,30.933c8.164,0.654,15.346,6.426,19.185,13.66c3.839,7.235,4.704,15.73,4.091,23.897
		c-0.742,9.875-3.558,19.588-8.213,28.329c5.64-19.598-4.056-40.348-19.936-53.142c-2.783-2.242-3.154-7.453-0.996-10.301
		C115.754,30.527,115.903,30.647,119.465,30.933z"/>
	<g>
		<g>
			<path fill="#FFFFFF" stroke="#D7935F" stroke-width="1.9275" stroke-miterlimit="10" d="M84.441,103.689
				c2.402,5.305,7.73,9,13.931,9c6.202,0,11.53-3.695,13.932-9H84.441z"/>
		</g>
	</g>
	<circle fill="#EFAB84" cx="72.271" cy="93.487" r="5.667"/>
	<circle fill="#EFAB84" cx="122.353" cy="93.487" r="5.667"/>
</g>
<linearGradient id="SVGID_3_" gradientUnits="userSpaceOnUse" x1="98.6665" y1="37.8218" x2="61.9432" y2="103.5684">
	<stop  offset="0.5025" style="stop-color:#E67F3A"/>
	<stop  offset="1" style="stop-color:#F8B985"/>
</linearGradient>
<path fill="url(#SVGID_3_)" d="M128.28,37.751c-0.501,7.458-7.075,13-13.839,15.342c-6.764,2.343-14.057,2.458-20.919,4.462
	c-11.105,3.242-20.75,11.629-25.85,22.479c-5.1,10.85-5.572,23.987-1.267,35.21c-4.528-13.752-11.411-31.004-10.314-45.508
	c1.097-14.505,7.914-29.005,18.213-38.744c10.3-9.739,27.098-11.172,40.016-5.892C120.891,27.785,128.775,30.369,128.28,37.751z"/>
</svg>
