<?xml version="1.0" encoding="utf-8"?>
<!-- Generator: Adobe Illustrator 16.0.0, SVG Export Plug-In . SVG Version: 6.00 Build 0)  -->
<!DOCTYPE svg PUBLIC "-//W3C//DTD SVG 1.1//EN" "http://www.w3.org/Graphics/SVG/1.1/DTD/svg11.dtd">
<svg version="1.1" id="Ebene_1" xmlns="http://www.w3.org/2000/svg" xmlns:xlink="http://www.w3.org/1999/xlink" x="0px" y="0px"
	 width="300px" height="300px" viewBox="0 0 300 300" enable-background="new 0 0 300 300" xml:space="preserve">
<path fill="#DAD3D2" d="M139.501,37.069c56.018,0,101.43,45.412,101.43,101.432c0,56.018-45.412,101.43-101.43,101.43
	c-56.02,0-101.432-45.412-101.432-101.43C38.069,82.481,83.481,37.069,139.501,37.069"/>
<path fill="none" d="M139.501,37.069c56.018,0,101.43,45.412,101.43,101.432c0,56.018-45.412,101.43-101.43,101.43
	c-56.02,0-101.432-45.412-101.432-101.43C38.069,82.481,83.481,37.069,139.501,37.069"/>
<g>
	<path fill="none" stroke="#7DC18E" stroke-width="3" stroke-miterlimit="10" d="M99,132"/>
	<path fill="none" stroke="#7DC18E" stroke-width="3" stroke-miterlimit="10" d="M147.834,109.834"/>
	<path fill="none" stroke="#7DC18E" stroke-width="3" stroke-miterlimit="10" d="M182,65.667"/>
	<g>
		<rect x="115" y="129" fill="#BBE2EB" width="15" height="51"/>
	</g>
	<g>
		<rect x="140" y="118" fill="#BBE2EB" width="15" height="62"/>
	</g>
	<g>
		<rect x="165" y="90" fill="#BBE2EB" width="14" height="90"/>
	</g>
	<g>
		<rect x="97" y="90" fill="#1E2144" width="4" height="107"/>
	</g>
	<g>
		<rect x="84" y="178" fill="#1E2144" width="111" height="5"/>
	</g>
	<g>
		<g>
			<rect x="90" y="169" fill="#1E2144" width="9" height="2"/>
		</g>
		<g>
			<rect x="90" y="162" fill="#1E2144" width="9" height="2"/>
		</g>
		<g>
			<rect x="90" y="155" fill="#1E2144" width="9" height="1"/>
		</g>
		<g>
			<rect x="90" y="147" fill="#1E2144" width="9" height="2"/>
		</g>
		<g>
			<rect x="90" y="140" fill="#1E2144" width="9" height="1"/>
		</g>
		<g>
			<rect x="90" y="132" fill="#1E2144" width="9" height="2"/>
		</g>
		<g>
			<rect x="90" y="125" fill="#1E2144" width="9" height="2"/>
		</g>
		<g>
			<rect x="90" y="118" fill="#1E2144" width="9" height="1"/>
		</g>
		<g>
			<rect x="90" y="110" fill="#1E2144" width="9" height="2"/>
		</g>
		<g>
			<rect x="90" y="103" fill="#1E2144" width="9" height="1"/>
		</g>
		<g>
			<rect x="90" y="95" fill="#1E2144" width="9" height="2"/>
		</g>
	</g>
	<g>
		<g>
			<rect x="180" y="180" fill="#1E2144" width="2" height="9"/>
		</g>
		<g>
			<rect x="173" y="180" fill="#1E2144" width="1" height="9"/>
		</g>
		<g>
			<rect x="165" y="180" fill="#1E2144" width="2" height="9"/>
		</g>
		<g>
			<rect x="158" y="180" fill="#1E2144" width="2" height="9"/>
		</g>
		<g>
			<rect x="151" y="180" fill="#1E2144" width="1" height="9"/>
		</g>
		<g>
			<rect x="143" y="180" fill="#1E2144" width="2" height="9"/>
		</g>
		<g>
			<rect x="136" y="180" fill="#1E2144" width="1" height="9"/>
		</g>
		<g>
			<rect x="128" y="180" fill="#1E2144" width="2" height="9"/>
		</g>
		<g>
			<rect x="121" y="180" fill="#1E2144" width="2" height="9"/>
		</g>
		<g>
			<rect x="114" y="180" fill="#1E2144" width="1" height="9"/>
		</g>
		<g>
			<rect x="106" y="180" fill="#1E2144" width="2" height="9"/>
		</g>
	</g>
	<path fill="none" stroke="#7DC18E" stroke-width="3" stroke-miterlimit="10" d="M176.129,65.36"/>
	<path fill="none" stroke="#7DC18E" stroke-width="3" stroke-miterlimit="10" d="M181.75,71.224"/>
</g>
</svg>
